<svg id="圖層_1" data-name="圖層 1" xmlns="http://www.w3.org/2000/svg" viewBox="0 0 455.37 168.03"><defs><style>.cls-1{fill:rgb(250, 151, 3);}</style></defs><title>chef_logo</title><path class="cls-1" d="M37.94,62q7.32,0,7.32,7.69,0,6.75-5.28,13.61-4.08,5.19-7.13,5.18c-1.73,0-2.59-1-2.59-3A3.86,3.86,0,0,1,31,83a23.54,23.54,0,0,1,2.22-2.13,20.44,20.44,0,0,0,3.43-4.72,7.67,7.67,0,0,0,1.2-3.43c0-1-.55-1.48-1.67-1.48-1.29,0-3.27,1-5.92,3.06Q24,79.23,17.67,89.69q-6.5,10.92-6.49,17.22a5.74,5.74,0,0,0,1.21,3.61,5.54,5.54,0,0,0,4.72,2.41q5.82,0,13.8-7.23A90.35,90.35,0,0,0,42.29,93.3q2.41-3.43,4.17-3.43a2.45,2.45,0,0,1,1.85.93,3,3,0,0,1,.74,1.85q0,3.42-8.79,13.33-14,15.55-25.37,15.56-6.87,0-10.46-4.91a14.18,14.18,0,0,1-2.6-8.52q0-9.63,8-22.31A70.65,70.65,0,0,1,27.6,66.26Q33.5,62,37.94,62Z" transform="translate(-1.82 -3)"/><path class="cls-1" d="M78.78,81.58a94.43,94.43,0,0,1,13.7-12q8.79-6.1,12.59-6.11a4.69,4.69,0,0,1,3.06,1.3,4.52,4.52,0,0,1,1.66,3.43c0,1.66-1.32,4.25-4,7.77A111.34,111.34,0,0,0,94.13,94.54q-3.52,7.23-3.52,9.82c0,1.66.8,2.5,2.4,2.5q5,0,16.86-17.78,2.4-3.61,4.35-3.61c1.29,0,1.94.74,1.94,2.22q0,3.61-7,13.8A53.91,53.91,0,0,1,96.38,115.1q-4.72,3.24-8.52,3.24a6,6,0,0,1-5.74-3.43A9.94,9.94,0,0,1,81,110.19q0-8.23,5.83-18.8,1.38-2.49,8.33-14.26-18.89,9.54-31.94,41.21c-.8,2.4-2,3.61-3.7,3.61a3.68,3.68,0,0,1-2.87-1.21,4.62,4.62,0,0,1-1.11-3.14q0-3.06,5.92-17.32Q72.47,73.8,82,55.47,91.54,36.94,103.23,17a38,38,0,0,1,4.35-6.48,4.57,4.57,0,0,1,3.33-1.66,3.45,3.45,0,0,1,2.87,1.75,5.05,5.05,0,0,1,.93,3c0,1.73-1,4-3,6.94q-10,15.47-19.91,34Q81.18,74.36,78.78,81.58Z" transform="translate(-1.82 -3)"/><path class="cls-1" d="M122.78,101.67v1.67a6,6,0,0,0,1,3.52c1.54,2.28,4.08,3.42,7.6,3.42q11.56,0,26.76-17.78c1.78-2,3.3-3,4.53-3a2.7,2.7,0,0,1,2.41,2.41q0,3.6-8.89,12.22a67.29,67.29,0,0,1-14.81,11q-7.87,4.26-14.63,4.26a13.43,13.43,0,0,1-11-4.8q-2.69-3.33-2.68-9.07,0-15.64,14.72-30.65,12-12.22,20.86-12.22A7,7,0,0,1,153,64.08a6.24,6.24,0,0,1,2.41,5.09q0,4.9-4.54,12Q141.54,96,122.78,101.67Zm2-7.22a37.29,37.29,0,0,0,10.19-5,41.32,41.32,0,0,0,10.29-11.28,7.76,7.76,0,0,0,1.38-4c0-1.23-.58-1.85-1.76-1.85-1.6,0-3.89,1.2-6.85,3.61Q130.07,82.32,124.78,94.45Z" transform="translate(-1.82 -3)"/><path class="cls-1" d="M184.42,89a180.34,180.34,0,0,1,20.93-19,83.92,83.92,0,0,1,9.07-6.2,9.53,9.53,0,0,1,3.06-1.39c.92,0,1.85.68,2.77,2a3.52,3.52,0,0,1,.84,2c0,1.11-1.18,2.62-3.52,4.53q-9.45,7.5-9.45,11.3c0,1.42.81,2.13,2.41,2.13q4,0,13.7-6.57A5.33,5.33,0,0,1,227,76.67a2.14,2.14,0,0,1,1.48.74,2.52,2.52,0,0,1,.84,1.76q0,2.79-7.78,8.52-8.15,6.12-15.46,6.11a10.07,10.07,0,0,1-5.47-1.57c-1.42-.86-2.13-2.41-2.13-4.63a10,10,0,0,1,2-5.28q-7.32,5.19-17.22,17.78a127.74,127.74,0,0,0-11.39,19.17c-1.42,2.84-3.18,4.25-5.28,4.25-2.28,0-3.42-1.07-3.42-3.24s1.79-7.71,5.37-16.85q7.95-20.37,16.66-31.57,5.37-6.94,9-7a3.65,3.65,0,0,1,2.22.75,2.8,2.8,0,0,1,1.21,2.31c0,.93-.62,2.22-1.85,3.89l-5,6.36A48.64,48.64,0,0,0,184.42,89Z" transform="translate(-1.82 -3)"/><path class="cls-1" d="M259.05,62q7.31,0,7.31,7.69,0,6.75-5.27,13.61Q257,88.53,254,88.52c-1.73,0-2.6-1-2.6-3a3.88,3.88,0,0,1,.74-2.5,26.44,26.44,0,0,1,2.23-2.13,19.82,19.82,0,0,0,3.45-4.72A7.64,7.64,0,0,0,259,72.74c0-1-.56-1.48-1.67-1.48-1.3,0-3.27,1-5.93,3.06q-6.3,4.91-12.59,15.37-6.48,10.92-6.48,17.22a5.73,5.73,0,0,0,1.2,3.61,5.55,5.55,0,0,0,4.73,2.41q5.82,0,13.79-7.23a91.06,91.06,0,0,0,11.39-12.4q2.4-3.43,4.17-3.43a2.45,2.45,0,0,1,1.85.93,3,3,0,0,1,.74,1.85q0,3.42-8.8,13.33-14,15.55-25.37,15.56-6.84,0-10.46-4.91a14.19,14.19,0,0,1-2.59-8.52q0-9.63,8-22.31a70.85,70.85,0,0,1,17.78-19.54Q254.6,62,259.05,62Z" transform="translate(-1.82 -3)"/><path class="cls-1" d="M299.88,81.58a95,95,0,0,1,13.7-12q8.81-6.1,12.6-6.11a4.65,4.65,0,0,1,3.05,1.3,4.5,4.5,0,0,1,1.67,3.43c0,1.66-1.34,4.25-4,7.77a110.34,110.34,0,0,0-11.67,18.52q-3.54,7.23-3.52,9.82c0,1.66.8,2.5,2.41,2.5q5,0,16.85-17.78,2.41-3.61,4.35-3.61t1.95,2.22q0,3.61-7,13.8a53.56,53.56,0,0,1-12.78,13.61c-3.15,2.16-6,3.24-8.52,3.24a6,6,0,0,1-5.74-3.43,9.94,9.94,0,0,1-1.11-4.72q0-8.23,5.84-18.8,1.38-2.49,8.33-14.26-18.9,9.54-31.94,41.21c-.81,2.4-2,3.61-3.71,3.61a3.68,3.68,0,0,1-2.87-1.21,4.62,4.62,0,0,1-1.11-3.14q0-3.06,5.93-17.32,11-26.48,20.55-44.81,9.54-18.53,21.2-38.43a38.69,38.69,0,0,1,4.36-6.48A4.57,4.57,0,0,1,332,8.9a3.47,3.47,0,0,1,2.87,1.75,5.05,5.05,0,0,1,.93,3c0,1.73-1,4-3,6.94q-10,15.47-19.9,34Q302.28,74.36,299.88,81.58Z" transform="translate(-1.82 -3)"/><path class="cls-1" d="M343.86,101.67v1.67a6,6,0,0,0,1,3.52q2.31,3.42,7.59,3.42,11.58,0,26.76-17.78,2.69-3,4.54-3a2.66,2.66,0,0,1,2.41,2.39q0,3.6-8.89,12.22a67.34,67.34,0,0,1-14.82,11q-7.87,4.26-14.63,4.26a13.39,13.39,0,0,1-10.92-4.82q-2.68-3.33-2.69-9.07,0-15.65,14.72-30.65,12-12.23,20.84-12.22A7,7,0,0,1,374.12,64a6.27,6.27,0,0,1,2.41,5.09q0,4.91-4.54,12Q362.65,96,343.86,101.67Zm2-7.22a37.23,37.23,0,0,0,10.18-5,41.28,41.28,0,0,0,10.32-11.28,7.68,7.68,0,0,0,1.39-4c0-1.23-.59-1.85-1.76-1.85q-2.42,0-6.85,3.61-8,6.39-13.24,18.52Z" transform="translate(-1.82 -3)"/><path class="cls-1" d="M404,75.75Q418.13,45.17,431.64,26q9.14-13,15.14-18.85C449.56,4.39,451.93,3,453.91,3a2.9,2.9,0,0,1,2,.74,2.94,2.94,0,0,1,1.29,2.5c0,1.33-1.08,3.28-3.24,5.83Q433.5,35.41,417,68q14.82-5.65,20.65-5.65a11.26,11.26,0,0,1,7,2.13,6.41,6.41,0,0,1,2.87,5.09,4.07,4.07,0,0,1-1,2.69A4.39,4.39,0,0,1,442.87,74q-1.58,0-6.2-2.6a7.68,7.68,0,0,0-3.34-.64q-9.25,0-22.22,8.42A16.42,16.42,0,0,1,419,86.05c2.1,4,3.15,9,3.15,14.82q0,22.68-13.52,47.87-5.85,10.74-11.29,16.29-5.85,6-11.95,6-4.62,0-7.5-4.44-2.31-3.71-2.31-10.1,0-13.69,10.37-41.2,1.29-3.33,7.4-17.13,1.57-3.42,3.06-7.31A6,6,0,0,1,395,91c-1.67,0-2.5-.92-2.5-2.77Q392.47,83.32,404,75.75Zm3.15,12.13q-5.19,9.81-13.7,31.66-8.82,22.32-8.8,34.63a7.64,7.64,0,0,0,1.2,4.26,3.73,3.73,0,0,0,3.06,1.85q5.73,0,15.09-19.26,10.56-21.48,10.56-39.35,0-6.94-2.69-10.46A15,15,0,0,0,407.1,87.88Z" transform="translate(-1.82 -3)"/></svg>